<svg width="401" height="520" viewBox="0 0 401 520" fill="none" xmlns="http://www.w3.org/2000/svg">
<path d="M295.44 304.576C292.38 300.291 288.323 296.816 283.618 294.452C278.914 292.087 273.704 290.905 268.44 291.006C276.44 310.306 258.34 313.926 258.34 313.926C259.85 310.156 256.08 307.436 256.08 307.436C253.08 309.096 254.08 313.776 254.08 313.776C251.52 312.566 248.66 314.076 248.66 314.076C248.815 312.829 248.646 311.563 248.169 310.4C247.693 309.237 246.925 308.216 245.94 307.436C242.63 310.156 244.57 314.976 244.57 314.976C226.78 307.746 237.07 291.346 237.07 291.346C214.23 298.106 208 310.726 208 310.726C232.12 301.936 225.18 322.986 221.75 326.536C232.89 315.416 234.54 329.536 234.54 329.536C236.34 320.646 243.43 321.536 243.43 321.536C245.84 330.436 252.32 330.436 252.32 330.436L253.38 335.106L254.43 330.436C256.285 329.517 257.822 328.064 258.843 326.264C259.864 324.464 260.323 322.399 260.16 320.336C266.34 317.926 269.49 325.106 269.49 325.106C270.08 307.866 285.34 316.866 285.34 316.866C276.74 299.296 295.44 304.576 295.44 304.576ZM245.24 317.576C248.24 315.966 250.36 318.756 250.36 318.756C246.77 320.306 245.23 317.586 245.23 317.586L245.24 317.576ZM252.78 318.736C252.78 318.736 253.83 315.876 257.6 316.476C257.6 316.486 256.54 319.046 252.78 318.726V318.736Z" fill="#404040"/>
<path d="M34.0781 454.44C34.5685 453.376 34.7184 452.186 34.5072 451.033C34.296 449.881 33.734 448.821 32.8981 448C29.0881 449.84 29.8981 454.18 29.8981 454.18C27.4081 452.99 24.2481 454.44 24.2481 454.44C24.1819 453.194 23.6659 452.015 22.796 451.122C21.9261 450.228 20.7614 449.68 19.5181 449.58C19.2834 450.61 19.2922 451.681 19.544 452.707C19.7957 453.733 20.2833 454.686 20.9681 455.49C-9.96191 477.97 2.46809 519.94 2.46809 519.94C-2.62191 501.19 12.8981 496.28 12.8981 496.28C-1.56186 478.28 16.4881 477.18 16.4881 477.18C12.2781 465.96 20.7481 460.7 20.7481 460.7C21.9781 471.83 28.0581 472.51 28.0581 472.51L29.2781 477.35L30.1581 472.51C36.1581 468.89 34.1581 459.65 34.1581 459.65C45.5481 460.88 39.4181 475.07 39.4181 475.07C59.7481 476.83 46.4181 495.75 46.4181 495.75C58.6881 497.86 55.0081 518.19 55.0081 518.19C67.4981 462.58 34.0781 454.44 34.0781 454.44ZM22.1681 456.85C23.0853 456.819 23.9962 457.013 24.8209 457.416C25.6455 457.819 26.3588 458.417 26.8981 459.16C26.433 459.324 25.9398 459.392 25.4476 459.362C24.9555 459.331 24.4745 459.202 24.0333 458.982C23.5921 458.761 23.1997 458.455 22.8793 458.08C22.5589 457.705 22.317 457.27 22.1681 456.8V456.85ZM28.2481 459.1C28.2481 459.1 29.4781 455.94 32.7181 456.29C32.7181 456.24 31.3981 459.44 28.2481 459.05V459.1Z" fill="#404040"/>
<path fill-rule="evenodd" clip-rule="evenodd" d="M395.342 21.5284C391.982 20.721 388.952 24.7581 388.335 27.0025C387.718 29.2468 386.634 33.2976 383.481 33.2155C380.327 33.1334 380.958 28.6447 380.958 28.6447C385.524 10.5804 376.46 -1.28463 361.116 0.111253C345.772 1.50713 344.127 19.6125 344.127 19.6125C340.973 23.9644 337.71 16.3692 335.392 15.3154C331.457 13.5363 330.566 14.3164 326.109 16.9166C324.283 18.002 322.895 19.692 322.188 21.6927C321.831 23.2664 323.353 23.2938 323.874 22.4864C324.723 21.2607 325.944 20.3396 327.357 19.8589C325.012 21.4463 323.943 23.157 323.998 24.2518C324.052 25.3466 325.108 25.7571 325.808 24.6213C326.481 23.3577 327.517 22.3236 328.783 21.6516C324.903 25.0592 326.987 27.8646 328.139 26.2498C329.784 23.937 331.58 23.0885 332.156 23.6633C332.732 24.2381 332.746 25.2918 330.401 26.2635C328.879 26.9067 329.537 27.9057 330.072 28.0289C330.739 28.1124 331.417 28.0313 332.046 27.7927C332.675 27.5541 333.235 27.1653 333.678 26.6603C334.391 31.0943 334.762 29.4795 336.229 34.3377C337.696 39.1959 328.934 45.2858 323.888 50.5409C318.842 55.7959 317.992 64.5818 320.021 66.3608C322.05 68.1399 323.147 63.2406 324.587 60.6405C326.027 58.0403 328.44 59.1762 328.166 60.3394C327.753 61.6164 327.244 62.8607 326.644 64.0617C325.273 67.6335 322.654 77.6647 328.015 81.6471C333.377 85.6295 333.651 75.4204 335.845 72.6423C338.039 69.8642 341.001 71.7254 340.589 74.5856C339.918 78.5073 340.473 82.5402 342.18 86.1358C344.442 91.3225 348.09 91.8425 350.051 84.2609C352.011 76.6794 355.014 76.8847 361.87 71.7528C368.726 66.6208 375.418 54.3453 376.762 53.2642C378.105 52.1831 384.564 45.7648 384.564 45.7648C392.421 36.9652 393.737 30.5606 393.34 29.589C392.942 28.6173 393.34 27.6867 394.08 27.7004C394.82 27.7141 394.587 29.9995 395.012 31.0533C395.438 32.107 396.219 31.5049 396.589 30.4374C396.764 29.3241 396.703 28.1868 396.411 27.0983C396.932 27.8236 397.426 29.4795 398.057 30.2048C398.173 30.2924 398.314 30.3423 398.46 30.3475C398.606 30.3527 398.75 30.3131 398.872 30.234C398.995 30.1548 399.09 30.0401 399.146 29.9051C399.201 29.7702 399.213 29.6216 399.181 29.4795C398.947 28.2824 398.54 27.1254 397.974 26.0445C398.627 26.3955 399.168 26.9217 399.537 27.5636C400.086 28.59 400.676 28.1931 400.676 28.1931C402.074 26.9341 398.701 22.3359 395.342 21.5284ZM338.45 36.2947C338.319 36.9003 338.117 37.4884 337.847 38.0464L337.339 38.7853C337.339 38.7853 336.764 39.4012 337.243 37.8685C337.243 37.8685 337.833 36.0346 337.956 35.282C338.015 34.6767 338.015 34.0671 337.956 33.4618C337.956 33.4618 337.956 33.1881 338.244 33.4618C338.471 34.388 338.541 35.3456 338.45 36.2947ZM340.671 35.7336C340.671 35.7336 340.521 36.1304 340.26 35.5967C340.507 34.6388 340.63 34.7346 340.63 34.7346C340.63 34.7346 340.713 34.4745 340.891 34.803C341.069 35.1314 341.193 34.5567 340.671 35.7746V35.7336ZM376.529 27.5225C376.15 28.3144 375.515 28.9559 374.727 29.3433C373.938 29.7307 373.041 29.8413 372.182 29.6574C370.687 29.2468 370.701 28.4668 370.701 28.4668L371.743 28.85C372.537 29.1986 373.429 29.261 374.264 29.0263C375.099 28.7917 375.827 28.2746 376.323 27.5636L376.529 27.5225ZM369.289 21.6516C369.59 19.5988 370.276 17.2724 372.401 17.1218H372.579C375.911 17.2313 376.693 23.4307 375.898 25.8119C375.198 27.7962 372.648 29.4384 370.591 27.6594C368.987 26.2909 369.028 23.458 369.289 21.679V21.6516ZM359.32 27.6457C358.554 27.9772 357.722 28.1298 356.888 28.0919C356.054 28.0539 355.24 27.8264 354.507 27.4267C354.048 27.215 353.645 26.8973 353.333 26.5C353.021 26.1027 352.807 25.637 352.711 25.1413C352.711 25.1413 352.615 24.6897 352.971 24.8676L353.259 25.1276C353.506 25.6066 353.012 25.1276 354.096 26.2498C354.886 26.9678 355.878 27.4253 356.938 27.56C357.998 27.6947 359.074 27.5 360.019 27.0025H360.197C359.939 27.2671 359.643 27.4929 359.32 27.6731V27.6457ZM360.362 25.8392C357.359 28.0425 353.369 26.5646 353.835 22.6917C354.233 19.2567 356.577 15.6165 359.937 15.4386H360.156C360.805 15.4652 361.433 15.6713 361.97 16.0338C362.508 16.3963 362.934 16.901 363.2 17.4913C364.503 20.4199 362.748 24.1012 360.362 25.8666V25.8392ZM363.968 32.066C363.104 31.5049 364.16 29.2195 365.449 29.2332C366.738 29.2468 365.504 33.0376 363.968 32.0933V32.066ZM378.064 48.8028C375.682 50.9049 373.711 53.429 372.25 56.2475L371.921 56.7813C371.743 57.0413 371.578 57.315 371.4 57.5887C370.55 58.8614 369.714 60.1478 368.795 61.3521L368.562 61.4753C368.562 61.4753 369.261 60.312 369.755 59.4635C372.017 55.5359 373.526 51.0061 377.982 47.9954C378.195 47.957 378.413 47.957 378.626 47.9954C378.421 48.9534 378.462 48.5291 378.064 48.8302V48.8028Z" fill="#3D3C3C"/>
</svg>
