<svg width="143" height="40" viewBox="0 0 143 40" fill="none" xmlns="http://www.w3.org/2000/svg">
<path d="M58.0939 30H55.8322L47.2424 16.8516V30H44.9807V12.9375H47.2424L55.8557 26.1445V12.9375H58.0939V30ZM64.1057 30H61.9377V17.3203H64.1057V30ZM61.7619 13.957C61.7619 13.6055 61.8674 13.3086 62.0783 13.0664C62.2971 12.8242 62.6174 12.7031 63.0392 12.7031C63.4611 12.7031 63.7814 12.8242 64.0002 13.0664C64.2189 13.3086 64.3283 13.6055 64.3283 13.957C64.3283 14.3086 64.2189 14.6016 64.0002 14.8359C63.7814 15.0703 63.4611 15.1875 63.0392 15.1875C62.6174 15.1875 62.2971 15.0703 62.0783 14.8359C61.8674 14.6016 61.7619 14.3086 61.7619 13.957ZM72.6721 28.4648C73.4455 28.4648 74.1213 28.2305 74.6994 27.7617C75.2775 27.293 75.5978 26.707 75.6603 26.0039H77.7111C77.6721 26.7305 77.4221 27.4219 76.9611 28.0781C76.5002 28.7344 75.883 29.2578 75.1096 29.6484C74.3439 30.0391 73.5314 30.2344 72.6721 30.2344C70.9455 30.2344 69.5705 29.6602 68.5471 28.5117C67.5314 27.3555 67.0236 25.7773 67.0236 23.7773V23.4141C67.0236 22.1797 67.2502 21.082 67.7033 20.1211C68.1564 19.1602 68.8049 18.4141 69.6486 17.8828C70.5002 17.3516 71.5041 17.0859 72.6603 17.0859C74.0822 17.0859 75.2619 17.5117 76.1994 18.3633C77.1447 19.2148 77.6486 20.3203 77.7111 21.6797H75.6603C75.5978 20.8594 75.2853 20.1875 74.7228 19.6641C74.1682 19.1328 73.4807 18.8672 72.6603 18.8672C71.5588 18.8672 70.7033 19.2656 70.0939 20.0625C69.4924 20.8516 69.1916 21.9961 69.1916 23.4961V23.9062C69.1916 25.3672 69.4924 26.4922 70.0939 27.2812C70.6955 28.0703 71.5549 28.4648 72.6721 28.4648ZM83.6877 24.1289L82.3283 25.5469V30H80.1603V12H82.3283V22.8867L83.4885 21.4922L87.4377 17.3203H90.0744L85.1408 22.6172L90.6486 30H88.1057L83.6877 24.1289ZM97.34 30.2344C95.6213 30.2344 94.2228 29.6719 93.1447 28.5469C92.0666 27.4141 91.5275 25.9023 91.5275 24.0117V23.6133C91.5275 22.3555 91.7658 21.2344 92.2424 20.25C92.7267 19.2578 93.3986 18.4844 94.258 17.9297C95.1252 17.3672 96.0627 17.0859 97.0705 17.0859C98.7189 17.0859 100 17.6289 100.914 18.7148C101.828 19.8008 102.285 21.3555 102.285 23.3789V24.2812H93.6955C93.7267 25.5312 94.09 26.543 94.7853 27.3164C95.4885 28.082 96.3791 28.4648 97.4572 28.4648C98.2228 28.4648 98.8713 28.3086 99.4025 27.9961C99.9338 27.6836 100.399 27.2695 100.797 26.7539L102.121 27.7852C101.059 29.418 99.465 30.2344 97.34 30.2344ZM97.0705 18.8672C96.1955 18.8672 95.4611 19.1875 94.8674 19.8281C94.2736 20.4609 93.9064 21.3516 93.7658 22.5H100.117V22.3359C100.055 21.2344 99.758 20.3828 99.2267 19.7812C98.6955 19.1719 97.9767 18.8672 97.0705 18.8672ZM107.16 30H104.992V12H107.16V30ZM111.707 30V18.9961H109.703V17.3203H111.707V16.0195C111.707 14.6602 112.07 13.6094 112.797 12.8672C113.524 12.125 114.551 11.7539 115.879 11.7539C116.379 11.7539 116.875 11.8203 117.367 11.9531L117.25 13.7109C116.883 13.6406 116.492 13.6055 116.078 13.6055C115.375 13.6055 114.832 13.8125 114.449 14.2266C114.067 14.6328 113.875 15.2188 113.875 15.9844V17.3203H116.582V18.9961H113.875V30H111.707ZM118.41 23.543C118.41 22.3008 118.653 21.1836 119.137 20.1914C119.629 19.1992 120.309 18.4336 121.176 17.8945C122.051 17.3555 123.047 17.0859 124.164 17.0859C125.891 17.0859 127.285 17.6836 128.348 18.8789C129.418 20.0742 129.953 21.6641 129.953 23.6484V23.8008C129.953 25.0352 129.715 26.1445 129.238 27.1289C128.77 28.1055 128.094 28.8672 127.211 29.4141C126.336 29.9609 125.328 30.2344 124.188 30.2344C122.469 30.2344 121.074 29.6367 120.004 28.4414C118.942 27.2461 118.41 25.6641 118.41 23.6953V23.543ZM120.59 23.8008C120.59 25.207 120.914 26.3359 121.563 27.1875C122.219 28.0391 123.094 28.4648 124.188 28.4648C125.289 28.4648 126.164 28.0352 126.813 27.1758C127.461 26.3086 127.785 25.0977 127.785 23.543C127.785 22.1523 127.453 21.0273 126.789 20.168C126.133 19.3008 125.258 18.8672 124.164 18.8672C123.094 18.8672 122.231 19.293 121.574 20.1445C120.918 20.9961 120.59 22.2148 120.59 23.8008ZM136.668 21.9492L139.481 17.3203H142.012L137.863 23.5898L142.141 30H139.633L136.703 25.2539L133.774 30H131.254L135.531 23.5898L131.383 17.3203H133.891L136.668 21.9492Z" fill="white"/>
<path d="M16.1656 36.5751L14.9754 35.8947L19.8811 10.9813L28.0957 20.4158L16.1656 36.5751Z" fill="white" fill-opacity="0.15"/>
<path d="M28.5856 0C28.5801 13.516 28.5702 20.3234 28.5559 20.4223C28.5385 20.5658 28.4845 20.7025 28.3992 20.8191L14.291 40L0.170898 20.8191C0.0855139 20.7025 0.0315487 20.5658 0.0141844 20.4223C0.00335659 20.3024 -0.00127207 20.2303 0.000298392 20.2061V0L8.92701 10.0931L19.6986 10.0753L28.5856 0ZM15.9672 36.3774L27.6989 20.4164L19.8811 11.3786L15.3721 35.6969L15.9672 36.3774ZM12.6167 36.3774L13.2079 35.7049L8.69889 11.3845L0.881068 20.4223L12.6167 36.3774Z" fill="white"/>
<path d="M23.0509 20.8033L19.0915 25.356L18.4567 22.5629L23.0509 20.8033Z" fill="white"/>
</svg>
