<svg width="82" height="90" viewBox="0 0 82 90" fill="none" xmlns="http://www.w3.org/2000/svg">
<path fill-rule="evenodd" clip-rule="evenodd" d="M76.3415 21.5284C72.9821 20.721 69.9517 24.7581 69.3347 27.0025C68.7176 29.2468 67.6344 33.2976 64.4806 33.2155C61.3268 33.1334 61.9576 28.6447 61.9576 28.6447C66.5237 10.5804 57.46 -1.28463 42.1162 0.111253C26.7724 1.50713 25.1269 19.6125 25.1269 19.6125C21.9731 23.9644 18.7097 16.3692 16.3923 15.3154C12.4569 13.5363 11.5657 14.3164 7.10925 16.9166C5.28273 18.002 3.89508 19.692 3.18758 21.6927C2.83106 23.2664 4.35312 23.2938 4.87418 22.4864C5.72301 21.2607 6.94397 20.3396 8.35706 19.8589C6.01229 21.4463 4.94273 23.157 4.99758 24.2518C5.05243 25.3466 6.10827 25.7571 6.80759 24.6213C7.48093 23.3577 8.51702 22.3236 9.78308 21.6516C5.90257 25.0592 7.9868 27.8646 9.13861 26.2498C10.7841 23.937 12.5804 23.0885 13.1563 23.6633C13.7322 24.2381 13.7459 25.2918 11.4011 26.2635C9.8791 26.9067 10.5373 27.9057 11.072 28.0289C11.7394 28.1124 12.4172 28.0313 13.0459 27.7927C13.6746 27.5541 14.2351 27.1653 14.6783 26.6603C15.3913 31.0943 15.7616 29.4795 17.2288 34.3377C18.696 39.1959 9.93395 45.2858 4.8879 50.5409C-0.158141 55.7959 -1.0083 64.5818 1.02109 66.3608C3.05048 68.1399 4.14742 63.2406 5.58719 60.6405C7.02696 58.0403 9.44031 59.1762 9.16606 60.3394C8.75278 61.6164 8.24398 62.8607 7.644 64.0617C6.27279 67.6335 3.65379 77.6647 9.01521 81.6471C14.3766 85.6295 14.6509 75.4204 16.8448 72.6423C19.0388 69.8642 22.0006 71.7254 21.5892 74.5856C20.9179 78.5073 21.4733 82.5402 23.1798 86.1358C25.4423 91.3225 29.0897 91.8425 31.0505 84.2609C33.0114 76.6794 36.0143 76.8847 42.8703 71.7528C49.7264 66.6208 56.4179 54.3453 57.7617 53.2642C59.1054 52.1831 65.5638 45.7648 65.5638 45.7648C73.4209 36.9652 74.7372 30.5606 74.3396 29.589C73.9419 28.6173 74.3396 27.6867 75.08 27.7004C75.8205 27.7141 75.5874 29.9995 76.0124 31.0533C76.4375 32.107 77.2191 31.5049 77.5893 30.4374C77.7636 29.3241 77.7029 28.1868 77.411 27.0983C77.9321 27.8236 78.4258 29.4795 79.0565 30.2048C79.1732 30.2924 79.3139 30.3423 79.4599 30.3475C79.6058 30.3527 79.7498 30.3131 79.8724 30.234C79.9951 30.1548 80.0904 30.0401 80.1456 29.9051C80.2008 29.7702 80.2131 29.6216 80.1809 29.4795C79.9468 28.2824 79.5404 27.1254 78.9743 26.0445C79.627 26.3955 80.1684 26.9217 80.5374 27.5636C81.0859 28.59 81.6755 28.1931 81.6755 28.1931C83.0742 26.9341 79.701 22.3359 76.3415 21.5284ZM19.4501 36.2947C19.3192 36.9003 19.1167 37.4884 18.8468 38.0464L18.3394 38.7853C18.3394 38.7853 17.7635 39.4012 18.2435 37.8685C18.2435 37.8685 18.8331 36.0346 18.9565 35.282C19.0152 34.6767 19.0152 34.0671 18.9565 33.4618C18.9565 33.4618 18.9565 33.1881 19.2444 33.4618C19.4712 34.388 19.5407 35.3456 19.4501 36.2947ZM21.6715 35.7336C21.6715 35.7336 21.5207 36.1304 21.2601 35.5967C21.5069 34.6388 21.6303 34.7346 21.6303 34.7346C21.6303 34.7346 21.7126 34.4745 21.8909 34.803C22.0691 35.1314 22.1925 34.5567 21.6715 35.7746V35.7336ZM57.5285 27.5225C57.1502 28.3144 56.5153 28.9559 55.7266 29.3433C54.9379 29.7307 54.0414 29.8413 53.1818 29.6574C51.6872 29.2468 51.7009 28.4668 51.7009 28.4668L52.743 28.85C53.5375 29.1986 54.4286 29.261 55.264 29.0263C56.0995 28.7917 56.8272 28.2746 57.3229 27.5636L57.5285 27.5225ZM50.2886 21.6516C50.5902 19.5988 51.2758 17.2724 53.4012 17.1218H53.5795C56.9115 17.2313 57.6931 23.4307 56.8978 25.8119C56.1985 27.7962 53.648 29.4384 51.5912 27.6594C49.9869 26.2909 50.028 23.458 50.2886 21.679V21.6516ZM40.3199 27.6457C39.5539 27.9772 38.7221 28.1298 37.888 28.0919C37.0539 28.0539 36.2396 27.8264 35.507 27.4267C35.0476 27.215 34.6452 26.8973 34.3329 26.5C34.0206 26.1027 33.8074 25.637 33.7107 25.1413C33.7107 25.1413 33.6147 24.6897 33.9712 24.8676L34.2591 25.1276C34.506 25.6066 34.0124 25.1276 35.0956 26.2498C35.8857 26.9678 36.8783 27.4253 37.9383 27.56C38.9983 27.6947 40.0741 27.5 41.0192 27.0025H41.1975C40.9389 27.2671 40.6433 27.4929 40.3199 27.6731V27.6457ZM41.362 25.8392C38.359 28.0425 34.3689 26.5646 34.8351 22.6917C35.2327 19.2567 37.5775 15.6165 40.9369 15.4386H41.1563C41.8046 15.4652 42.4327 15.6713 42.9703 16.0338C43.5079 16.3963 43.9338 16.901 44.2004 17.4913C45.503 20.4199 43.7479 24.1012 41.362 25.8666V25.8392ZM44.9683 32.066C44.1044 31.5049 45.1603 29.2195 46.4492 29.2332C47.7381 29.2468 46.504 33.0376 44.9683 32.0933V32.066ZM59.0643 48.8028C56.6824 50.9049 54.7112 53.429 53.2504 56.2475L52.9213 56.7813C52.743 57.0413 52.5785 57.315 52.4002 57.5887C51.5501 58.8614 50.7137 60.1478 49.795 61.3521L49.5618 61.4753C49.5618 61.4753 50.2611 60.312 50.7548 59.4635C53.0173 55.5359 54.5256 51.0061 58.982 47.9954C59.1951 47.957 59.4134 47.957 59.6265 47.9954C59.4208 48.9534 59.4619 48.5291 59.0643 48.8302V48.8028Z" fill="#3D3C3C"/>
</svg>
